<svg xmlns="http://www.w3.org/2000/svg" xmlns:vectornator="http://vectornator.io" fill-rule="evenodd" stroke-linecap="round" stroke-linejoin="round" clip-rule="evenodd" viewBox="0 0 469 140"><g vectornator:layerName="Untitled"><path d="M10 2C1 8 1 28 1 37c0 42 25 66 64 78 56 18 113 24 172 24 18 0 37 2 55 0 16-2 34-7 50-11 24-4 46-12 69-22 12-5 24-9 34-18 6-5 14-11 18-19 8-14 5-34-1-48-3-5-6-17-12-18-10-3-17 16-25 20-9 4-18 3-27 4l-31 5c-81 10-164 4-246 6-29 1-59 4-85-12-10-6-13-12-19-21-2-2-5-5-7-3z"/><path fill="#fff" d="M13 11c-4 2-9 24-4 26 4 2 6-5 10-4 2 1 11 5 14 3 1-1-2-4-2-4-6-4-11-8-14-14l-4-7z"/><path d="M13 13c-6 2-2 11 1 14l5 2c-1 4-12 1-10 7 0 2 3 0 4-1 2-1 3-3 5-3s11 5 13 3c1-1-2-3-2-3-5-2-11-10-13-14l-3-5z"/><path fill="#fff" d="M12 16l-1 5c2 4 6 4 8 6s3 10 9 7c-2 1-13-19-16-18zM447 18c-4 3 5 12 7 10 1-2-5-12-7-10zM400 34c-5 2-8 0-13 1-1 0-3 6-8 6s-14-9-20-3c-4 4 8 5 5 6-12 7-9-13-18-5v4c-1 1-5 5-4 7l13-1 40-10c3-1 12-1 13-5h-8z"/><path d="M400 35c-3 1-2 3 1 2 3-2 1-3-1-2m-12 1l-3 4 10-2-7-2zM367 38c-8 2-5 1-2 4l1 5 11-3c2-1-7-7-10-6zM350 39l-5 10 10-1-5-9z"/><path fill="#fff" d="M367 39c-3 1-2 5 1 6l7-2c0-1-6-5-8-4m53 0l-4 3-19 7 1 2 13-2-1-2h7v-3l8-3-5-2zM350 40c-3 1-5 9 0 7 2-1 2-7 0-7zM323 41c-3 2 2 4 4 2 1 0-2-4-4-2z"/><path d="M350 41c-1 1-3 8 0 5v-5z"/><path fill="#fff" d="M9 42c-2 1 1 8 1 8l4-5 11 2s-14-6-16-5zm47 0c-1 1 7 4 8 4l28 8c36 5 74 6 112 6h26c3 0 8 1 9-2 5-9-15-7-20-7h-6l1-3c-1-2-6 3-7 3-5-3 0-7 0-8h-3c-2 0-1 3-2 4-4 2-3-4-6-5-2 0-6 7-9 4-2-1 2-2 1-3-3-4-11 4-14 4-2 0 1-3-1-4-13-3-30 0-42 4-3 1-4-2-7-3l-13 2c-13 1-29 0-42-2-2-1-12-5-13-2z"/><path d="M149 46l-12 1-7 3-18-1h-10l8 3 22 3 16 1 6-5 13 6h37l18-1-15-3-4-3h-30l-24-4z"/><path fill="#fff" d="M45 47l-6 4c-2 1-9-4-10 0l9 3c9 0 20 7 29 1l-5-2c-3-2-15-7-17-6m104 0h-12c-3 1-4 5-7 4-4 0-6-3-10-3l-11 3 9 1c6 0 15 0 21 2 2 0 7 3 9 2 2-2 1-7 7-6l8 1 4 5c7 2 19 0 27 0h12c2-2-9-7-11-7h-16c-5 0-9 5-14 2-5-2 4-2 3-3-1-2-17-2-19-1m112 0l-9 2 1 4-2 5 24-1 6-4 11 3-4-9-5 1-22-1z"/><path d="M149 48c-5 1-14-2-16 4l13 3c2-1 3-5 6-6 2-1 9 3 10 0 1-2-12-2-13-1m112 0c-2 0-12 7-7 9 9 2 19-3 27-5l10 3-5-6c-6-2-18-3-25-1z"/><path fill="#fff" d="M326 48s-1 3 6 5l-6 1c-2 0-1-6 0-6"/><path d="M44 49c-8 3 15 8 17 7s-13-8-17-7m47 0c-1 2 8 3 8 1l-8-1z"/><path fill="#fff" d="M149 49l-14 2 10 2 4-4zm112 0c-2 0-10 4-6 6 3 2 17 0 20-1 15-4-8-7-14-5z"/><path d="M179 50l-6 2-6 1 6 2h22l9-1-7-4h-18zm82 0c-1 0-7 3-4 4 2 1 16 0 18-1 10-4-11-4-14-3zM141 51c0 2 6 2 5 0h-5z"/><path fill="#fff" d="M179 51l-4 2 5 1h20l-4-3-6 1-11-1zm82 0c-11 2 12 3 15 1 2-1-12-2-15-1"/><path d="M230 53l-1 1h4c0-1-3 6 4 4 5-2-3-8-7-5"/><path fill="#fff" d="M202 53l1 1-1-1zM11 55c-1 2 7 9 10 4 1-2-9-4-10-4zM302 56c-7 2 2 2 5 1 4-1-4-2-5-1zM359 57c-16 4 13 2 9 7-2 3-14-2-17 1 0 0 14 2 14 4 0 0-14 0-16 2-1 1 8 0 8 3s-14 3-15 6c-1 2 2 1 3 2 1 2 18 5 17 5-5 3-14 0-19 2l-10 4c-3 2-9-1-12 0-2 1-2 4-4 4-4 2-8 2-13 3-2 1-14-2-15 3l13 3-14 6 10 1 6 3c0 2-5 2-3 4l8 2h-5c-5 2-7 3-14 3-18 0-36 2-54-2-3 0-7 1-10-1-4-4-12-3-19-3s-15-2-23-4c-6-1-16 2-22-3l18-2c-2-3-6-1-9-2-7-3-15-2-23-4l-23-8c-5-1-11 1-16 1-2-1-10-12-12-12-7 2-5 8-12 10-10 4-7-4-17 2-1 0-4-3-5 0-1 6 7 6 11 6 9 1 17 0 26 2 3 0 8-2 11-1 2 0 2 3 3 4h6c3 3 1 6 6 7 3 0 2-15 11-10 2 1 1 3 6 5l2 1c0 2-6 6-1 9 3 3 5 0 9 1 2 1 2 4 5 3s3-6 7-5c7 1 8 9 15 10 8 1 17-8 23-7 4 0-6 6-5 7 6 4 20 2 27 2 2 0 5 2 7 1s4-4 6-4c7-3 13 2 19 4 6 1 4-4 7-4 8-1 16 5 24 4 9-2 19-2 27-5 2-1 1-5 3-5 3-1 17 1 18-1l2-5-3-2c0-1 8-2 9-4 1-1-4-1-3-3 2-1 8 1 9-1 0 0-8-4-7-5l14-1c7 0 14-2 20-3s12 2 18 1c5 0 19-8 24-3 0 0-2 0-1 1 3 2 18-8 19-11 1 0-6-2-5-4 0-2 13 0 14-5 0 2-14 1-13-2 0-2 10 2 9-1l-9-1-14-3c-4 1-9 4-13 3-1 0 1-3-1-4l-9 2c-1 1 9 1 9 4 0 2-13-2-12 2 1 3 8 0 10 1 7 4 0-2 9-3 2-1 1 3 5 3 3 0 15-2 14 2l-19 3c-7 1-12-4-18-2-4 1 2 5 0 7h-6c-6 0-12 4-18 1-1-1 1-1 1-1 13-2 0-1 0-7l6-4c1-1-2-1-2-2l8-1-6-2c-1-2 3-1 2-3l-3-3c1-4 10 1 11-2 1-4-11 0-12-2 0-2 13-4 12-4l-7-1-13 2c-4 0-4-2-8-1z"/><path d="M359 58c-8 2 2 3 4 2 2-2-3-3-4-2m16 0l-6 2 5 2c1-1 5-6 1-4"/><path fill="#fff" d="M234 93v3s8-1 8 1c0 0-8 1-7 2 2 2 10-2 12 0 3 2-5 1-1 3 0 0 13 2 12 4l-6 1c-1 1 2 2 2 3l-18 2c-1 0-7 0-7-2 0 1 3 0 2-1-8-3-18 1-26-1-1 0-7-2-8-1-2 2 4 2 5 3 2 2 13 2 20 2 1 0 7 0 7 2 0-1-3 0-2 1 1 0 7-1 7 1 0-1-4 2-3 3h5c2 0 20 3 27 0 10-4-9-3-9-5l7-1c4-1 20 1 22-3l-6-2c-1-1-4 1-4-1 0 0 9-1 8-2-2-3-9 1-11 0l-2-3c-1 0-7 3-7-1l2-1c2-7 13 2 17-3 1-1-2-2-2-2s-3 3-3-2c0-1 10 1 9-1-3-4-6 0-8-1-3-1-2-3-7-3-1 0-9 1-9-1 0 0 4 1 3-1-2-2-5-1-7-3 1 1 2 0 2-1 0-2-4 0-4-2l10 1c9 1 20 2 22 1l5-2c0-1-5-1-5-4 0 0 20-4 21 3l-5 2c-1 0-9-4-10-2-1 1 0 4 2 4 4 1 11-1 15 1 2 1 0 3-2 4h-5c2 2 5 1 6 1 2 0 2-2 5-3s23 2 25-1c1-2-4 0-4 0v-3l-12-2c-1 0-8 0-7-4h9c1-1-4 0-4-2 0 0 10 1 9-1-2-2-8 0-10-1-6-3-19-1-28 2h-6c-2-1 2-3-2-4-2 0-5 2-7 1-7-3-30-3-49-1h-17c-1 0-4-2-5 0-1 4 9 0 8 3l-3 2c-3 0-4-1-8-3-2-1-4 1-6 1l-2-3c0-1 5 1 4-2-1-1-11 1-12 1h-39c-8 0-13-3-20-4-4 0-8 3-11 2l-10-3c-2 0-6 2-8 1s-13-5-15-3l1 2c-3 1-11-2-12 1-1 2 2 0 2 0v3c3 1 5-1 8-1v3c2 3 8 0 7 3 0 2-3-1-4 1-1 1 4 0 4 3h-3c1 4 5 4 5 4s-3 1-2 2l2-1c4 4 8-6 12-1l-2 1c0 3 7 2 8 2 2 1-1 3-1 4l4 2s-4 0-3 1h14c2-3-6-2-6-4 0-1 11 1 10-2-1-2-4 0-5 0l-12-3c-1 0-6 0-6-2s7 1 6-2c-1-4-15-1-14-4l4-1c1 0 4 2 5 1 3-2 2-3 5-3s12 3 15 1c1-1-2-2 1-3v3c2 1 6-2 8-1 3 1-2 2-1 4 0 1 7-1 8 4 0 1-5-1-4 2s15-2 12 4l-3 2c-1 0-17 0-16 1 4 7 9 2 12 3l13 8c2 1 6-1 8-1h19l11 1s5-1 5 1c0 0-8 0-7 1 3 3 19 2 19 2 1-1-2-3-2-3h11c1-1-8-1-9-2-1-2-11-1-16-1v-3s-4 2-3-1c0-2 9 0 9 0 5-5-4-3-3-6l11-2c7-3 21-1 27 1 1 1 10-1 10 1h-8c-1 1 4 2 3 3l-5 2m-11 1l-4-3-7 1c2 4 4 1 6 1"/><path d="M85 64l-10 2 13 5c2 1 1 9 4 11l16-3c1-1-15-3-11-6h7c8-2 23-6 30-2 3 2 5 7 7 9 1 3 8-2 8 3 1 8-16 2-17 6l14 4 10 5c8 2 17-1 25-1 3 0 17-4 18-7 2-3-13-7-10-8 8-4 22-2 30-1 6 1 10-1 16-1 2 0 9 2 11 1 1-1-1-3-1-4 0-2 6 2 5-1-2-3-13-4-15-2 0 0 2 4-3 3v-2h-4c-3-2-8-7-14-4s-10 6-18 2c-2-1-2-4-4-4-18 0-37 3-55 0l-38-4c-4 0-10-3-14-1z"/><path fill="#fff" d="M85 65c-5 3 4 5 5 8 0 1 0 8 3 9l7-4c1 0-8-1-4-5 2-2 13-3 15-3l6-1c1-1-5-2-6-2-3 0-7-2-11-1-3 1-6 4-9 3-2 0 4-3 3-4-2-1-7-2-9 0zM43 66l2 7 8-5-10-2z"/><path d="M85 66l10 13 3-8 10-3-17 2v-4h-6z"/><path fill="#fff" d="M321 66c-2 1 9 4 10 2 2-2-9-4-10-2"/><path d="M374 67c-4 1-4 7-1 7 4-1 8-9 1-7"/><path fill="#fff" d="M135 70c-3 5 14 10 15 13 3 6-13 6-13 6l12 4c11 5 19 3 31 3 3 0 9 2 11 1 1-1-1-3-1-4 1-2 7-2 8-3 0-4-14-6-10-9 6-5 24-3 32-5h7c2-4-10-4-12-3-11 5-13 0-24-3-9-2-25 1-35 1l-16-1h-5z"/><path d="M265 71c-4 2-7-1-10 1-5 4 2 6 5 7 5 0 9-6 15-4l3 3c1 2 7 4 9 2 1-2-2-7-4-8-2-2-16-3-18-1m153 0c-2 0-5 2-2 4 3 3 10 0 14 1 2 0 2 3 4 4l5-1s-4-5-7-6-13-3-14-2m-280 1c-1 6 11 6 13 11 2 3-7 8-7 7 7 8 25 6 34 5 3-1 9 2 11 1v-3l7-4c0-3-12-3-10-7s17-3 18-5c0-2-8-2-9-3-5-4-10-3-16-2-9 2-18 0-26 0h-15z"/><path fill="#fff" d="M266 72l-10 1c-6 5 9 3 10 3 7-3 6-7 0-4m9 0c0-1 11 11 11 7 1-4-10-9-11-7M418 72c-7 1 7 4 9 3 0 0-7-4-9-3m-278 1c1 4 10 6 12 9 0 1 4 6 3 7 0 1-8-1-6 2 5 7 23 4 30 3h9c6-7-4-7-2-12 1-3 8-3 9-6 0-4-7-4-10-4l-32 1h-13z"/><path d="M266 73c-2 1 0 2 1 1 2-1 0-2-1-1m142 0c-1 0-7 4-3 3 3 0 7-6 3-3m-267 1c0 3 5 2 7 3 3 1 7 8 9 11 2 4-7 2-7 2 4 8 23 3 30 3 4 0 7 2 10-3 2-3-6-4-6-8s10-5 10-6c1-4-7-3-9-3l-32 1h-12zm74 0c-10 5 7 2 9 1 1-1-7-2-9-1"/><path fill="#fff" d="M28 75c-2 0-1 9-1 9 3 2 6-1 9-1 7 0 24 3 29-3 2-3-7-6-9-6-5 0-5 3-9 3H37c-2 1-1 3-3 3-4 1 0-8-6-5m153 0h-24c-1 0-7-1-8 1l8 11c1 2-2 5-1 5l7 1c7 0 17 1 23-1 8-3-4-6-2-10 1-3 8-5 8-7h-11zm57 0c-9 4 3 7 6 5 5-4-1-8-6-5z"/><path d="M181 76h-22l-8 1 6 8 2 6c2 3 23 1 26 0 4-1-2-6-2-9 0-4 7-8-2-6m60 0c-5 1-4 4 1 3 2-1 2-4-1-3m114 0l-5 2c-19 6 10 1 11-2h-6zM28 77c-1 3 3 9 5 5 0 0-3-7-5-5z"/><path fill="#fff" d="M181 77h-21l-7 1 5 7c4 7 19 8 27 5 2-1-3-6-3-8 0-3 5-6-1-5"/><path d="M41 78c-5 1-6 5-1 2 3 0 4-3 1-2zM181 78h-20l-7 1 3 4c5 8 12 8 21 6h7c1-2-5-4-5-7 0-1 3-2 3-4h-2zM308 78l-14 3 15 3 1 3 12-3h11l-6-2-19-4z"/><path fill="#fff" d="M180 79c-5-3-33-2-18 8 4 3 16 3 19 0l-1-8zm129 0c-6 2 6 7 9 5 8-3-7-6-9-5z"/><path d="M309 80c-4 1 6 4 8 4 3-1-6-5-8-4zM159 81c-3 7 18 9 21 5 4-7-20-8-21-5zM398 81c-4 2 5 4 4 5-7 6-26-2-28 8l-3 2c0 2 9 0 11 0 4 0 9-5 12-4l11 2v-3l8-4 17 3c4-3 4-7-1-9-8-2-11 7-20 4-3 0-8-6-11-4z"/><path fill="#fff" d="M161 82c-3 5 14 7 17 3s-16-5-17-3"/><path d="M107 83c-1 3 12 7 13 2l-13-2zm56 0c-2 3 11 4 12 2 2-3-11-4-12-2z"/><path fill="#fff" d="M430 83c-2 0-5 5-2 5s5-4 2-5M36 85c-7 6 8 11 14 15 2 1 7 4 9 2v-5l-6-2c-7-6-4-8-13-9"/><path d="M430 85c-2 0-5 2-2 2 2 0 4-2 2-2z"/><path fill="#fff" d="M62 86c-1 0-11 3-10 4 1 2 12 1 13-1 2-2-1-4-3-3z"/><path d="M62 87c-3 0-9 5-3 3 2 0 9-4 3-3m35 0c-2 2 0 5 2 4s-1-6-2-4m267 0c-12 4-27 6-40 7l-10 6c2 4 13-4 15-4 8-3 20 0 27-1v-4c3-3 11 1 13-1 3-3-4-4-5-3z"/><path fill="#fff" d="M400 88c-6 0-2 4 2 4s1-4-2-4z"/><path d="M271 90c-1 0-7 0-8 2 0 0 8 2 9 1 3-1 4-5-1-3z"/><path fill="#fff" d="M382 90l-7 2c-5 3 12 2 14 1 6-4-5-4-7-3z"/><path d="M45 91c-2 2 1 2 2 3s-2 1-1 2c1 2 10 7 12 5 3-2-13-10-13-10zM240 91c-8 1-4 5 2 4 7-2 2-5-2-4zM382 91c-12 5 4 3 8 0h-8zM92 93l-14 5-6-3-7 3 3 4 22-1-2-3 11-4-7-1z"/><path fill="#fff" d="M92 94l-14 5-5-3-7 3 4 2h17v-3l5-4zM322 96c-3 2 0 3 2 2 3-2 0-3-2-2"/><path d="M72 98c-3 0-1 2 1 2 3 0 1-3-1-2m40-1c-6 2-6 7-5 7 6-2 15-11 5-7z"/><path fill="#fff" d="M114 98c-2 0-8 2-3 3 1 0 5-3 3-3z"/><path d="M249 100c0 1 10 7 14 5 4-3-11-7-14-5z"/><path fill="#fff" d="M89 100l1 1-1-1z"/><path d="M131 101c-5 5 5 2 6 3 2 1 1 4 4 5 2 0 2-2 3-3l3-1c1-1-15-6-16-4z"/><path fill="#fff" d="M252 101l8 3c2-4-8-4-8-3m145 0c-11 4-20 6-33 6-4 0-12 0-13 4l16 1c12 1 22-3 33-6 3-1 11-2 12-5h-15z"/><path d="M397 102c-3 1-21 7-16 9 3 0 17-4 19-6 1-1-3-3-3-3"/><path fill="#fff" d="M139 104c-1 2 3 4 3 1 1-1-2-2-3-1zm257 0c-2 0-12 1-10 4l10-4z"/><path d="M115 105c-1 0 0 3 1 2 3-1 0-3-1-2M124 109c-1 1 1 5 2 3 2-1 0-5-2-3zM250 113c-3 2-2 6 2 4 3-1 1-7-2-4zM152 115c-9 0 0 7 5 7 2 0 4-4 3-5l-8-2z"/><path fill="#fff" d="M152 117c-5 1 4 5 6 4 4-1-3-5-6-4z"/><path d="M176 117c-11 2-1 13 5 10 3-1 0-3 1-4l5-4c1-3-10-3-11-2"/><path fill="#fff" d="M176 118c-9 2 2 11 5 8v-3c0-2 4-3 4-5h-9z"/><path d="M195 122l-4 1c0 1-2 2-1 3 4 2 14-10 17-4 1 2-7 3-6 6 0 2 6 2 8 2 4 0 24 2 26-2h-4c-5-3-13-1-20-1-1 0-4 3-6 1 0-1 12-5 10-7-3-3-14-1-20 1z"/><path fill="#fff" d="M344 118c-2 2 8 3 9 1 1-1-8-3-9-1z"/><path d="M176 119c-5 1-1 6 2 6 4-1 5-8-2-6"/><path fill="#fff" d="M176 120c-3 1 0 3 2 2 3-1 0-3-2-2M209 121c-5 4 1 5 4 2 1-2-3-3-4-2z"/><path d="M252 128c0 2 8 4 9 1 0-3-9-2-9-1m33 0c-3 3 3 4 4 2 0 0-2-4-4-2"/></g></svg>